<?xml version="1.0" encoding="UTF-8"?>
<svg xmlns="http://www.w3.org/2000/svg" xmlns:xlink="http://www.w3.org/1999/xlink" viewBox="0 0 24 24" version="1.1">
    <!-- Generator: Sketch 51.3 (57544) - http://www.bohemiancoding.com/sketch -->
    <title>032 - Growth Chart</title>
    <desc>Created with Sketch.</desc>
    <defs/>
    <g id="Page-1" stroke="none" stroke-width="1" fill="none" fill-rule="evenodd">
        <g id="032---Growth-Chart" fill="#b91c1c" fill-rule="nonzero">
            <path d="M19.5137,0 L4.4863,0 C2.00979565,0.00292050659 0.00292050659,2.00979565 0,4.4863 L0,19.5137 C0.00292050659,21.9902044 2.00979565,23.9970795 4.4863,24 L19.5137,24 C21.9902044,23.9970795 23.9970795,21.9902044 24,19.5137 L24,4.4863 C23.9970795,2.00979565 21.9902044,0.00292050659 19.5137,0 Z M20,13 C20,13.5522847 19.5522847,14 19,14 C18.4477153,14 18,13.5522847 18,13 L18,11.2585 L13.3179,15.5093 C12.9476223,15.8224446 12.4790315,15.9954317 11.9941,15.998 C11.5207768,15.9980435 11.0631101,15.8284584 10.7041,15.52 C10.6681594,15.4891792 10.6345353,15.4557556 10.6035,15.42 L8.4834,13.0112 L5.6948,15.7061 C5.29756919,16.0899379 4.6643879,16.0790808 4.28055,15.68185 C3.8967121,15.2846192 3.90756919,14.6514379 4.3048,14.2676 L7.144,11.5249 C7.89081237,10.8485122 9.02358717,10.8313911 9.7905,11.4849 C9.82668149,11.5151327 9.86032719,11.5482767 9.8911,11.584 L12.0117,13.994 L16.4106,10 L15,10 C14.4477153,10 14,9.55228475 14,9 C14,8.44771525 14.4477153,8 15,8 L19,8 C19.0087,8 19.0159,8.0047 19.0246,8.0049 C19.1521195,8.02762763 19.2786582,8.05555087 19.4039,8.0886 C19.4509556,8.11498343 19.4958312,8.14507891 19.5381,8.1786 C19.6039981,8.21622263 19.6653368,8.26132065 19.7209,8.313 C19.7267,8.319 19.7346,8.3211 19.7402,8.3272 C19.768484,8.36719428 19.793626,8.40932041 19.8154,8.4532 C19.8597913,8.51138478 19.8974324,8.57442188 19.9276,8.6411 C19.9503558,8.71126646 19.9650176,8.78380382 19.9713,8.8573 C19.9845259,8.90405693 19.994121,8.95176545 20,9 L20,13 Z" id="Shape"/>
        </g>
    </g>
</svg>
